<?xml version="1.0" encoding="UTF-8" standalone="no"?>
<!-- Created with Inkscape (http://www.inkscape.org/) -->

<svg
   xmlns:dc="http://purl.org/dc/elements/1.1/"
   xmlns:cc="http://creativecommons.org/ns#"
   xmlns:rdf="http://www.w3.org/1999/02/22-rdf-syntax-ns#"
   xmlns:svg="http://www.w3.org/2000/svg"
   xmlns="http://www.w3.org/2000/svg"
   xmlns:sodipodi="http://sodipodi.sourceforge.net/DTD/sodipodi-0.dtd"
   xmlns:inkscape="http://www.inkscape.org/namespaces/inkscape"
   width="80"
   height="80"
   id="svg2"
   version="1.1"
   inkscape:version="0.48.1 r9760"
   sodipodi:docname="icon-template-style1.svg">
  <defs
     id="defs4">
    <marker
       inkscape:stockid="DotS"
       orient="auto"
       refY="0.0"
       refX="0.0"
       id="DotS"
       style="overflow:visible">
      <path
         id="path4006"
         d="M -2.5,-1.0 C -2.5,1.7600000 -4.7400000,4.0 -7.5,4.0 C -10.260000,4.0 -12.5,1.7600000 -12.5,-1.0 C -12.5,-3.7600000 -10.260000,-6.0 -7.5,-6.0 C -4.7400000,-6.0 -2.5,-3.7600000 -2.5,-1.0 z "
         style="fill-rule:evenodd;stroke:#000000;stroke-width:1.0pt;marker-start:none;marker-end:none"
         transform="scale(0.2) translate(7.4, 1)" />
    </marker>
    <marker
       inkscape:stockid="DotM"
       orient="auto"
       refY="0.0"
       refX="0.0"
       id="DotM"
       style="overflow:visible">
      <path
         id="path4003"
         d="M -2.5,-1.0 C -2.5,1.7600000 -4.7400000,4.0 -7.5,4.0 C -10.260000,4.0 -12.5,1.7600000 -12.5,-1.0 C -12.5,-3.7600000 -10.260000,-6.0 -7.5,-6.0 C -4.7400000,-6.0 -2.5,-3.7600000 -2.5,-1.0 z "
         style="fill-rule:evenodd;stroke:#000000;stroke-width:1.0pt;marker-start:none;marker-end:none"
         transform="scale(0.4) translate(7.4, 1)" />
    </marker>
    <filter
       id="filter6564"
       inkscape:label="Evanescent"
       inkscape:menu="Blurs"
       inkscape:menu-tooltip="Blur the contents of objects, preserving the outline and adding progressive transparency at edges"
       color-interpolation-filters="sRGB">
      <feGaussianBlur
         id="feGaussianBlur6566"
         result="result6"
         stdDeviation="3"
         in="SourceGraphic" />
      <feColorMatrix
         id="feColorMatrix6568"
         values="1 0 0 0 0 0 1 0 0 0 0 0 1 0 0 0 0 0 1 0 "
         result="result7"
         in="SourceGraphic" />
      <feComposite
         id="feComposite6570"
         in2="result7"
         operator="in"
         in="result6" />
    </filter>
  </defs>
  <sodipodi:namedview
     id="base"
     pagecolor="#ffffff"
     bordercolor="#666666"
     borderopacity="1.0"
     inkscape:pageopacity="0.0"
     inkscape:pageshadow="2"
     inkscape:zoom="4"
     inkscape:cx="41.57551"
     inkscape:cy="22.14341"
     inkscape:document-units="px"
     inkscape:current-layer="layer1"
     showgrid="false"
     inkscape:window-width="1920"
     inkscape:window-height="1123"
     inkscape:window-x="0"
     inkscape:window-y="24"
     inkscape:window-maximized="1" />
  <metadata
     id="metadata7">
    <rdf:RDF>
      <cc:Work
         rdf:about="">
        <dc:format>image/svg+xml</dc:format>
        <dc:type
           rdf:resource="http://purl.org/dc/dcmitype/StillImage" />
        <dc:title></dc:title>
        <dc:description>To create icon

1.  cut out shape from rectangle
2. apply Filters-&gt;Blur-&gt;Evanescense</dc:description>
      </cc:Work>
    </rdf:RDF>
  </metadata>
  <g
     inkscape:label="Layer 1"
     inkscape:groupmode="layer"
     id="layer1"
     transform="translate(0,-972.36218)">
    <path
       style="fill:#ad7fa8;fill-opacity:1;stroke:none;filter:url(#filter6564)"
       d="M 8.78125 5.34375 C 6.8760929 5.34375 5.34375 6.8760929 5.34375 8.78125 L 5.34375 71.21875 C 5.34375 73.123907 6.8760929 74.65625 8.78125 74.65625 L 71.21875 74.65625 C 73.123907 74.65625 74.65625 73.123907 74.65625 71.21875 L 74.65625 8.78125 C 74.65625 6.8760929 73.123907 5.34375 71.21875 5.34375 L 8.78125 5.34375 z M 17.9375 16.75 L 62.0625 16.75 C 65.309414 16.75 68 19.44059 68 22.6875 L 68 57.3125 C 68 60.5594 65.309414 63.25 62.0625 63.25 L 17.9375 63.25 C 14.690586 63.25 12 60.5594 12 57.3125 L 12 22.6875 C 12 19.44059 14.690586 16.75 17.9375 16.75 z M 17.9375 21.75 C 17.3741 21.75 17 22.1241 17 22.6875 L 17 26.75 L 63 26.75 L 63 22.6875 C 63 22.1241 62.6259 21.75 62.0625 21.75 L 17.9375 21.75 z M 17 28.75 L 17 34.90625 L 63 34.90625 L 63 28.75 L 17 28.75 z M 17 36.90625 L 17 43.0625 L 63 43.0625 L 63 36.90625 L 17 36.90625 z M 17 45.0625 L 17 51.25 L 63 51.25 L 63 45.0625 L 17 45.0625 z M 17 53.25 L 17 57.3125 C 17 57.8759 17.3741 58.25 17.9375 58.25 L 62.0625 58.25 C 62.6259 58.25 63 57.8759 63 57.3125 L 63 53.25 L 17 53.25 z "
       transform="translate(0,972.36218)"
       id="rect2985" />
  </g>
</svg>
